{"title":"Transformers: Age of Extinction (2014) Dual Audio WEB-DL 720p MK","uid":11042861,"size":5611187895,"categoryP":"video","categoryS":"hd___movies","magnet":"?xt=urn:btih:fa9fcc1a81ac24efc2394a5153fbde642fe95540&amp;dn=Transformers%3A+Age+of+Extinction+%282014%29+Dual+Audio+WEB-DL+720p+MK&amp;tr=udp%3A%2F%2Ftracker.openbittorrent.com%3A80&amp;tr=udp%3A%2F%2Fopen.demonii.com%3A1337&amp;tr=udp%3A%2F%2Ftracker.coppersurfer.tk%3A6969&amp;tr=udp%3A%2F%2Fexodus.desync.com%3A6969","seeders":0,"leechers":0,"uploader":"darkj6","files":-1,"time":1410897385,"description":" ______   _______  ______    ___   _      ___  --------|\n|      | |   _   ||    _ |  |   | | |    |   ||   |----|    \n|  _    ||  |_|  ||   | ||  |   |_| |    |   ||   |___ \n| | |   ||       ||   |_||_ |      _|    |   ||    _  |\n| |_|   ||       ||    __  ||     |_  ___|   ||   | | |\n|       ||   _   ||   |  | ||    _  ||       ||   |_| |\n|______| |__| |__||___|  |_||___| |_||_______||_______|\n                            &lt;a href=&quot;\nhttps://thepiratebay.se/user/darkj6/&quot; rel=&quot;nofollow&quot; target=&quot;_NEW&quot;&gt;\nhttps://thepiratebay.se/user/darkj6/&lt;/a&gt;\n\nJoin ThePirateBay Forum:\n                                                     &lt;a href=&quot;\nhttps://forum.suprbay.org/member.php?action=register&amp;referrer=908&quot; rel=&quot;nofollow&quot; target=&quot;_NEW&quot;&gt;\nhttps://forum.suprbay.org/member.php?action=register&amp;referrer=908&lt;/a&gt;\n\n\n\nFile Format : MKV \n\nQuality : WEB-DL 720p \n\nVideo : 3860 kb / s, 1280x532 \n\nAudio : Russian: AC3, 192 kb / s (2 ch) \n\n        English: AC3, 384 kb / s (6 ch)\n\n\n\n\nFormat : Matroska\nFormat version : Version 4 / Version 2\nFile size : 5.23 GiB\nDuration : 2h 45mn\nOverall bit rate : 4 526 Kbps\nEncoded date : UTC 2014-09-16 07:58:17\nWriting application : mkvmerge v6.1.0 ('Old Devil') built on Mar 4 2013 09:10:42\nWriting library : libebml v1.3.0 + libmatroska v1.4.0\n\nVideo\nID : 1\nFormat : AVC\nFormat/Info : Advanced Video Codec\nFormat profile : &lt;a class=&quot;__cf_email__&quot; href=&quot;/cdn-cgi/l/email-protection&quot; data-cfemail=&quot;367b575f58767a051807&quot;&gt;[email&amp;#160;protected]&lt;/a&gt;&lt;script data-cfhash='f9e31' type=&quot;text/javascript&quot;&gt;\n/* &lt;![CDATA[ */!function(){try{var t=&quot;currentScript&quot;in document?document.currentScript:function(){for(var t=document.getElementsByTagName(&quot;script&quot;),e=t.length;e--;)if(t[e].getAttribute(&quot;data-cfhash&quot;))return t[e]}();if(t&amp;&amp;t.previousSibling){var e,r,n,i,c=t.previousSibling,a=c.getAttribute(&quot;data-cfemail&quot;);if(a){for(e=&quot;&quot;,r=parseInt(a.substr(0,2),16),n=2;a.length-n;n+=2)i=parseInt(a.substr(n,2),16)^r,e+=String.fromCharCode(i);e=document.createTextNode(e),c.parentNode.replaceChild(e,c)}t.parentNode.removeChild(t);}}catch(u){}}()/* ]]&gt; */&lt;/script&gt;\nFormat settings, CABAC : No\nFormat settings, ReFrames : 2 frames\nCodec ID : V_MPEG4/ISO/AVC\nDuration : 2h 45mn\nBit rate : 3 860 Kbps\nWidth : 1 280 pixels\nHeight : 532 pixels\nDisplay aspect ratio : 2.40:1\nFrame rate : 23.976 fps\nColor space : YUV\nChroma subsampling : 4:2:0\nBit depth : 8 bits\nScan type : Progressive\nBits/(Pixel*Frame) : 0.236\nStream size : 4.46 GiB (85%)\nLanguage : English\nDefault : Yes\nForced : No\nColor primaries : BT.709-5, BT.1361, IEC 61966-2-4, SMPTE RP177\nTransfer characteristics : BT.709-5, BT.1361\nMatrix coefficients : BT.709-5, BT.1361, IEC 61966-2-4 709, SMPTE RP177\n\nAudio #1\nID : 2\nFormat : AC-3\nFormat/Info : Audio Coding 3\nMode extension : CM (complete main)\nFormat settings, Endianness : Big\nCodec ID : A_AC3\nDuration : 2h 45mn\nBit rate mode : Constant\nBit rate : 192 Kbps\nChannel(s) : 2 channels\nChannel positions : Front: L R\nSampling rate : 48.0 KHz\nBit depth : 16 bits\nCompression mode : Lossy\nStream size : 227 MiB (4%)\nLanguage : Russian\nDefault : Yes\nForced : No\n\nAudio #2\nID : 3\nFormat : AC-3\nFormat/Info : Audio Coding 3\nMode extension : CM (complete main)\nFormat settings, Endianness : Big\nCodec ID : A_AC3\nDuration : 2h 45mn\nBit rate mode : Constant\nBit rate : 384 Kbps\nChannel(s) : 6 channels\nChannel positions : Front: L C R, Side: L R, LFE\nSampling rate : 48.0 KHz\nBit depth : 16 bits\nCompression mode : Lossy\nStream size : 454 MiB (8%)\nLanguage : English\nDefault : No\nForced : No\n\nMenu\n00:00:00.000 : en:Chapter 1\n00:06:51.000 : en:Chapter 2\n00:14:33.000 : en:Chapter 3\n00:21:37.000 : en:Chapter 4\n00:30:13.000 : en:Chapter 5\n00:38:45.000 : en:Chapter 6\n00:46:08.000 : en:Chapter 7\n00:51:39.000 : en:Chapter 8\n00:59:09.000 : en:Chapter 9\n01:07:48.000 : en:Chapter 10\n01:15:14.000 : en:Chapter 11\n01:23:25.000 : en:Chapter 12\n01:29:14.000 : en:Chapter 13\n01:37:16.000 : en:Chapter 14\n01:44:35.000 : en:Chapter 15\n01:51:25.000 : en:Chapter 16\n01:57:48.000 : en:Chapter 17\n02:04:48.000 : en:Chapter 18\n02:12:35.000 : en:Chapter 19\n02:21:04.000 : en:Chapter 20\n02:28:48.000 : en:Chapter 21\n02:37:09.000 : en:Chapter 22\n\n &lt;a href=&quot;\nhttp://www.imdb.com/title/tt2109248/&quot; rel=&quot;nofollow&quot; target=&quot;_NEW&quot;&gt;\nhttp://www.imdb.com/title/tt2109248/&lt;/a&gt;\n\n\n &lt;a href=&quot;\nhttp://i.imgur.com/Znc1LQb.jpg&quot; rel=&quot;nofollow&quot; target=&quot;_NEW&quot;&gt;\nhttp://i.imgur.com/Znc1LQb.jpg&lt;/a&gt;\n &lt;a href=&quot;\nhttp://i.imgur.com/DqOk3tk.png&quot; rel=&quot;nofollow&quot; target=&quot;_NEW&quot;&gt;\nhttp://i.imgur.com/DqOk3tk.png&lt;/a&gt;\n &lt;a href=&quot;\nhttp://i.imgur.com/cdqstie.png&quot; rel=&quot;nofollow&quot; target=&quot;_NEW&quot;&gt;\nhttp://i.imgur.com/cdqstie.png&lt;/a&gt;\n","torrent":{"xt":"urn:btih:fa9fcc1a81ac24efc2394a5153fbde642fe95540","amp;dn":"Transformers%3A+Age+of+Extinction+%282014%29+Dual+Audio+WEB-DL+720p+MK","amp;tr":["udp%3A%2F%2Ftracker.openbittorrent.com%3A80","udp%3A%2F%2Fopen.demonii.com%3A1337","udp%3A%2F%2Ftracker.coppersurfer.tk%3A6969","udp%3A%2F%2Fexodus.desync.com%3A6969"],"infoHash":"fa9fcc1a81ac24efc2394a5153fbde642fe95540","infoHashBuffer":{"type":"Buffer","data":[250,159,204,26,129,172,36,239,194,57,74,81,83,251,222,100,47,233,85,64]},"announce":[],"urlList":[]}}